<svg id="Layer_1" data-name="Layer 1" xmlns="http://www.w3.org/2000/svg" viewBox="0 0 214.87796 81.4246"><defs><style>.cls-1{fill:#d1d3d4;}.cls-1,.cls-2{fill-rule:evenodd;}.cls-2{fill:#fff;}.cls-3{fill:#f16122;}</style></defs><path class="cls-1" d="M347.25958,237.07841v40.16632a16.07943,16.07943,0,0,1-.79175,5.44146,6.11051,6.11051,0,0,1-6.2854,4.33964,7.04739,7.04739,0,0,1-5.06525-2.0381,6.923,6.923,0,0,1-1.60259-2.30154,6.60563,6.60563,0,0,1-.508-2.592,6.953,6.953,0,0,1,2.03817-5.03905,6.6053,6.6053,0,0,1,4.89356-2.09072,7.38028,7.38028,0,0,1,4.5244,1.76759v-20.2547q-3.29409-.28683-4.9202-.29025a24.01563,24.01563,0,0,0-17.69536,7.57153,24.65739,24.65739,0,0,0-7.47265,17.9398,27.79924,27.79924,0,0,0,.15811,2.98782,24.05076,24.05076,0,0,0,7.36079,15.10356,26.25708,26.25708,0,0,0,29.23091,4.96616,24.07726,24.07726,0,0,0,8.62695-6.4899,25.64783,25.64783,0,0,0,5.606-13.57982,36.75873,36.75873,0,0,0,.29025-4.75542V237.07841Z" transform="translate(-314.37455 -223.94937)"/><path class="cls-2" d="M339.54256,254.1891q1.62278,0,4.92043.29024v20.25471a7.38271,7.38271,0,0,0-4.52463-1.7676,6.60551,6.60551,0,0,0-4.89378,2.0908,6.95377,6.95377,0,0,0-2.038,5.03876,6.60432,6.60432,0,0,0,.508,2.59208H314.53266a27.794,27.794,0,0,1-.15811-2.98781,24.65782,24.65782,0,0,1,7.47243-17.93965A24.01572,24.01572,0,0,1,339.54256,254.1891Z" transform="translate(-314.37455 -223.94937)"/><path class="cls-2" d="M347.25936,237.08054h18.38823v40.85229a36.75445,36.75445,0,0,1-.29025,4.75526H346.46783a16.07785,16.07785,0,0,0,.79153-5.44123Z" transform="translate(-314.37455 -223.94937)"/><path class="cls-1" d="M455.0272,237.07834V277.2448a16.08357,16.08357,0,0,1-.79131,5.44124,6.11849,6.11849,0,0,1-6.29208,4.33994,7.02143,7.02143,0,0,1-5.05872-2.03817,6.94814,6.94814,0,0,1-1.60933-2.30177,6.6098,6.6098,0,0,1-.50789-2.592,6.95373,6.95373,0,0,1,2.03809-5.03883,6.61622,6.61622,0,0,1,4.89378-2.09073,7.36735,7.36735,0,0,1,4.52448,1.76738V254.47736q-3.29442-.28716-4.92021-.29024a24.016,24.016,0,0,0-17.69557,7.57153,24.683,24.683,0,0,0-7.47266,17.93965,27.78975,27.78975,0,0,0,.15834,2.98774,24.02548,24.02548,0,0,0,7.36695,15.10357A26.24655,26.24655,0,0,0,458.8856,302.756a24.07613,24.07613,0,0,0,8.62695-6.4899,25.58888,25.58888,0,0,0,5.59957-13.58,36.732,36.732,0,0,0,.2967-4.75541V237.07834Z" transform="translate(-314.37455 -223.94937)"/><path class="cls-2" d="M447.304,254.18917q1.62267,0,4.92021.2901V274.734a7.36829,7.36829,0,0,0-4.52448-1.76767,6.61629,6.61629,0,0,0-4.89378,2.0908,6.95469,6.95469,0,0,0-2.03809,5.039,6.60926,6.60926,0,0,0,.50789,2.592H422.29412a27.73449,27.73449,0,0,1-.15834-2.98782,24.68388,24.68388,0,0,1,7.47243-17.93965A24.0166,24.0166,0,0,1,447.304,254.18917Z" transform="translate(-314.37455 -223.94937)"/><path class="cls-2" d="M455.0272,237.07834V277.2448a16.08357,16.08357,0,0,1-.79131,5.44124h18.87623a36.732,36.732,0,0,0,.2967-4.75541V237.07834Z" transform="translate(-314.37455 -223.94937)"/><path class="cls-1" d="M521.80629,261.63335a24.29417,24.29417,0,0,0-17.87366-7.49908,25.773,25.773,0,0,0-18.67833,7.3541,24.22823,24.22823,0,0,0-7.57153,18.11105,26.36191,26.36191,0,0,0,.1714,3.08662A24.33656,24.33656,0,0,0,485.2543,297.671a25.94,25.94,0,0,0,36.45311.01975,24.35234,24.35234,0,0,0,7.37392-15.00469,26.36231,26.36231,0,0,0,.17118-3.08662,24.61252,24.61252,0,0,0-7.44622-17.96607ZM517.07084,282.686h0a12.75313,12.75313,0,0,1-3.71981,6.569,14.06913,14.06913,0,0,1-19.74681-.01974,12.87654,12.87654,0,0,1-3.7331-6.54929,14.48977,14.48977,0,0,1-.31652-3.08662,12.40953,12.40953,0,0,1,3.96388-9.59634,13.87341,13.87341,0,0,1,10.41415-3.997,12.60925,12.60925,0,0,1,9.45151,3.997,12.87207,12.87207,0,0,1,3.99676,9.59634A14.54122,14.54122,0,0,1,517.07084,282.686Z" transform="translate(-314.37455 -223.94937)"/><path class="cls-2" d="M529.25251,279.60155a26.36584,26.36584,0,0,1-.17118,3.08662H517.07084a14.54176,14.54176,0,0,0,.31006-3.08662,12.871,12.871,0,0,0-3.997-9.59634,12.60819,12.60819,0,0,0-9.45129-3.997,13.87337,13.87337,0,0,0-10.41415,3.997,12.40931,12.40931,0,0,0-3.96388,9.59634,14.49038,14.49038,0,0,0,.31652,3.08662h-12.017a26.36544,26.36544,0,0,1-.1714-3.08662,24.22889,24.22889,0,0,1,7.57153-18.11135,25.77246,25.77246,0,0,1,18.67833-7.35388,24.29344,24.29344,0,0,1,17.87366,7.49915A24.61233,24.61233,0,0,1,529.25251,279.60155Z" transform="translate(-314.37455 -223.94937)"/><ellipse class="cls-3" cx="189.0932" cy="55.69918" rx="10.26924" ry="10.28402"/><path class="cls-1" d="M391.26844,279.78514a13.68868,13.68868,0,0,0,1.81648,3.507l26.63876-8.66314c-.368-1.53894-.66145-2.65588-.885-3.3428a24.87638,24.87638,0,0,0-31.855-16.1841,25.27032,25.27032,0,0,0-15.28356,12.80995,24.73665,24.73665,0,0,0-1.51288,19.71144,29.4726,29.4726,0,0,0,1.07326,2.80775,24.21326,24.21326,0,0,0,11.66086,12.22145,25.2049,25.2049,0,0,0,19.79445,1.298A25.82528,25.82528,0,0,0,416.476,293.39931l-13.91814-8.76987q-1.58391,3.42105-4.21831,4.27762a6.4535,6.4535,0,0,1-6.15312-1.11378,11.013,11.013,0,0,1-2.85164-3.24,17.28826,17.28826,0,0,1-1.54394-3.48381,12.37959,12.37959,0,0,1-.26323-7.8377,6.71493,6.71493,0,0,1,4.44865-4.5338q4.93493-1.60494,7.56867,3.30177l-8.92388,2.90185A13.62772,13.62772,0,0,0,391.26844,279.78514Z" transform="translate(-314.37455 -223.94937)"/><path class="cls-2" d="M406.35945,256.462a24.39691,24.39691,0,0,1,12.47992,14.82617c.22344.68685.51684,1.804.885,3.34294l-25.05152,8.14666-1.93077.00338a13.01147,13.01147,0,0,1-1.473-2.99383,13.629,13.629,0,0,1-.64728-4.88358l8.9238-2.90208q-2.63918-4.90122-7.56838-3.30176a6.71582,6.71582,0,0,0-4.44894,4.534,12.38171,12.38171,0,0,0,.263,7.83762q.29751.91455.65257,1.73038l-19.38375.016a24.72222,24.72222,0,0,1,2.64075-14.90375,25.26892,25.26892,0,0,1,15.28349-12.80988A24.46025,24.46025,0,0,1,406.35945,256.462Z" transform="translate(-314.37455 -223.94937)"/><path class="cls-2" d="M517.706,239.88078l-3.10645-4.78988c-.31389-.00525-.74966-.02422-1.30982-.05663v4.84651h-2.14314v-11.62c.11628,0,.56283-.019,1.33951-.0595.7792-.04053,1.40454-.0595,1.88062-.0595q4.42866,0,4.42726,3.43119a3.15373,3.15373,0,0,1-.61154,1.88364,3.30327,3.30327,0,0,1-1.53712,1.1988l3.4314,5.22536Zm-2.09449-15.93141a10.06191,10.06191,0,1,0,10.062,10.062,10.062,10.062,0,0,0-10.062-10.062Zm0,1.88673a8.17522,8.17522,0,1,0,8.17522,8.17522,8.17518,8.17518,0,0,0-8.17522-8.17522Zm-2.32178,4.22153v3.23112c.38151.03241.67119.04872.87147.04872a3.75442,3.75442,0,0,0,1.89154-.36527,1.53415,1.53415,0,0,0,.59811-1.42078,1.24255,1.24255,0,0,0-.64151-1.20146,4.51373,4.51373,0,0,0-2.02133-.341A5.29927,5.29927,0,0,0,513.28968,230.05763Z" transform="translate(-314.37455 -223.94937)"/></svg>